PathFileType	4	(X/Y/Z)	/Users/itak/Documents/Research/Walk-IL/dataset/trc/00091_00006.trc
DataRate	CameraRate	NumFrames	NumMarkers	Units	OrigDataRate	OrigDataStartFrame	OrigNumFrames
100.000000	100.000000	4	53	mm	100.000000	193	517
Frame#	Time	RPSI			LPSI			L3			STRN			T10			C7			CLAV			RBAK			LBAK			LSHO			LUPA			LAEL			LAOL			LWTS			LWPS			LFRA			LHPS			LHTS			RSHO			RUPA			RAEL			RAOL			RWTS			RWPS			RFRA			RIFD			RHTS			RBHD			LFHD			RFHD			LBHD			LHIP			RHIP			RASI			LASI			LKNE			LTHI			LANK			LTIP			LTOE			LMT1			LMT5			LHEE			RKNE			RTHI			RANK			RTIP			RTOE			RMT1			RMT5			LIFD			RHPS			RHEE			
		X1	Y1	Z1	X2	Y2	Z2	X3	Y3	Z3	X4	Y4	Z4	X5	Y5	Z5	X6	Y6	Z6	X7	Y7	Z7	X8	Y8	Z8	X9	Y9	Z9	X10	Y10	Z10	X11	Y11	Z11	X12	Y12	Z12	X13	Y13	Z13	X14	Y14	Z14	X15	Y15	Z15	X16	Y16	Z16	X17	Y17	Z17	X18	Y18	Z18	X19	Y19	Z19	X20	Y20	Z20	X21	Y21	Z21	X22	Y22	Z22	X23	Y23	Z23	X24	Y24	Z24	X25	Y25	Z25	X26	Y26	Z26	X27	Y27	Z27	X28	Y28	Z28	X29	Y29	Z29	X30	Y30	Z30	X31	Y31	Z31	X32	Y32	Z32	X33	Y33	Z33	X34	Y34	Z34	X35	Y35	Z35	X36	Y36	Z36	X37	Y37	Z37	X38	Y38	Z38	X39	Y39	Z39	X40	Y40	Z40	X41	Y41	Z41	X42	Y42	Z42	X43	Y43	Z43	X44	Y44	Z44	X45	Y45	Z45	X46	Y46	Z46	X47	Y47	Z47	X48	Y48	Z48	X49	Y49	Z49	X50	Y50	Z50	X51	Y51	Z51	X52	Y52	Z52	X53	Y53	Z53	

194	1.93	-1153.494750976562	1004.990234375	-137.7863464355469	-1147.518798828125	997.0519409179688	-308.5790710449219	-1146.0732421875	1064.469970703125	-236.2451171875	-883.4598999023438	1248.510131835938	-187.5400390625	-1147.779663085938	1193.391235351562	-251.1139221191406	-1078.65966796875	1457.805297851562	-233.9137268066406	-908.1360473632812	1364.588012695312	-190.3303985595703	-1162.254516601562	1319.819702148438	-180.2714233398438	-1075.448120117188	1423.696044921875	-339.2218017578125	-957.1171264648438	1427.97509765625	-383.12158203125	-954.4356079101562	1303.133666992188	-467.5073547363281	-925.186767578125	1088.363891601562	-487.0074768066406	-1010.502807617188	1070.87451171875	-425.0434875488281	-849.5209350585938	853.2677612304688	-394.4987487792969	-885.1416625976562	839.5138549804688	-469.0729675292969	-899.5375366210938	980.0733032226562	-486.6065063476562	-852.2566528320312	760.5951538085938	-454.3808898925781	-823.394287109375	772.5755615234375	-389.4707946777344	-1062.874755859375	1412.957885742188	-49.2074089050293	-1094.227294921875	1343.765991210938	6.813087940216064	-1147.601440429688	1083.343383789062	22.63758087158203	-1096.35693359375	1056.308715820312	-59.08597564697266	-1014.236938476562	827.1444091796875	53.07215881347656	-1099.510131835938	816.3304443359375	71.33999633789062	-1142.3056640625	1004.031860351562	36.12252044677734	-1012.314147949219	637.7616577148438	46.18107604980469	-996.7069702148438	726.3468627929688	67.50876617431641	-1065.162841796875	1619.178100585938	-163.6658935546875	-849.849365234375	1671.328247070312	-189.2847290039062	-918.54833984375	1657.109497070312	-83.39221954345703	-999.585205078125	1641.42431640625	-282.5338745117188	-1041.466186523438	927.8427734375	-392.0075988769531	-1093.094604492188	938.7562255859375	-49.8481330871582	-967.0382080078125	954.7360229492188	-64.6446533203125	-933.7030639648438	934.8922119140625	-330.0887756347656	-1071.909912109375	466.5584106445312	-328.6512451171875	-1067.401611328125	608.9413452148438	-367.7010192871094	-1308.645874023438	54.6921501159668	-358.2451171875	-1198.262329101562	250.1513366699219	-357.8168029785156	-1105.49462890625	44.57253265380859	-341.8226623535156	-1155.408447265625	44.78247833251953	-289.9146118164062	-1205.419067382812	39.8507194519043	-390.7345886230469	-1365.646118164062	60.07336044311523	-286.2422790527344	-879.4544677734375	523.1041259765625	-35.2868537902832	-975.0841064453125	779.8013916015625	-18.52241897583008	-820.6062622070312	38.73670959472656	-50.94738388061523	-867.9489135742188	397.980224609375	-28.81784629821777	-624.2918701171875	109.1486358642578	-7.049337387084961	-658.9534301757812	90.32689666748047	-64.02935028076172	-722.3175659179688	76.025390625	9.837272644042969	-840.7750854492188	670.7504272460938	-366.9237365722656	-1071.025390625	726.7820434570312	94.27600860595703	-838.7652587890625	32.82537460327148	-120.2702178955078	
195	1.94	-1146.155029296875	1004.492370605469	-134.8803863525391	-1140.086669921875	996.1116333007812	-305.6790161132812	-1138.443237304688	1063.44482421875	-233.4374542236328	-876.3506469726562	1247.5966796875	-183.8535766601562	-1140.531372070312	1192.404052734375	-248.4897155761719	-1071.658935546875	1456.9287109375	-230.6943969726562	-901.1207885742188	1363.679931640625	-186.5152740478516	-1155.317626953125	1318.710205078125	-177.5614776611328	-1068.001708984375	1422.87841796875	-336.0523986816406	-949.4468383789062	1427.2666015625	-379.46728515625	-946.3639526367188	1302.388793945312	-463.8773498535156	-916.6602172851562	1087.709106445312	-483.3560791015625	-1002.180419921875	1070.015014648438	-421.7118835449219	-840.76025390625	852.846923828125	-390.5994873046875	-876.1749877929688	838.9696655273438	-465.2745971679688	-890.8037719726562	979.4812622070312	-482.8753356933594	-843.0364990234375	760.181884765625	-450.4860534667969	-814.328857421875	772.3267822265625	-385.4920349121094	-1056.513671875	1411.70751953125	-45.9576301574707	-1088.083984375	1342.415161132812	9.776871681213379	-1141.88720703125	1082.1689453125	25.34880256652832	-1089.9091796875	1054.927978515625	-55.89199066162109	-1009.027282714844	825.9488525390625	57.17631530761719	-1094.540649414062	815.19384765625	74.82384490966797	-1136.698120117188	1002.8955078125	39.05588531494141	-1007.405822753906	636.4949340820312	50.78195190429688	-991.8456420898438	725.1027221679688	72.01763153076172	-1059.1142578125	1617.83935546875	-160.953857421875	-843.91357421875	1671.0654296875	-185.0960998535156	-913.2772827148438	1656.673828125	-79.67460632324219	-992.8123168945312	1640.23291015625	-279.3937683105469	-1034.125610351562	926.7384033203125	-389.0395812988281	-1085.834716796875	938.4231567382812	-46.72476196289062	-959.7907104492188	954.2090454101562	-61.6078987121582	-926.3511962890625	933.7659301757812	-327.0079650878906	-1067.850219726562	465.9802856445312	-326.8586730957031	-1062.235961914062	608.373779296875	-365.5207824707031	-1308.311279296875	55.94040679931641	-358.5147705078125	-1196.097045898438	250.7346954345703	-357.240234375	-1105.472290039062	44.49532699584961	-341.8445434570312	-1155.298583984375	44.82888793945312	-290.1170043945312	-1205.304077148438	39.88887023925781	-390.8808288574219	-1365.3193359375	62.18917083740234	-286.671142578125	-872.7742919921875	522.3491821289062	-32.98659896850586	-967.4253540039062	779.3660278320312	-15.81393909454346	-819.691162109375	38.13019180297852	-51.03985977172852	-862.1402587890625	396.7556762695312	-26.93728828430176	-621.4147338867188	102.392448425293	-7.175825595855713	-656.6069946289062	84.90500640869141	-64.15695190429688	-720.2662353515625	72.06462860107422	9.656855583190918	-831.3905029296875	670.4202880859375	-362.9710083007812	-1066.341186523438	725.6531372070312	98.17292785644531	-837.9519653320312	33.20948028564453	-120.3178482055664	
196	1.95	-1138.816772460938	1004.275451660156	-131.8913726806641	-1132.531616210938	995.3201293945312	-302.7091979980469	-1130.6904296875	1062.638427734375	-230.5119476318359	-869.1266479492188	1246.876586914062	-180.0307464599609	-1133.199096679688	1191.676391601562	-245.7664489746094	-1064.49951171875	1456.278076171875	-227.3798980712891	-893.990478515625	1362.963134765625	-182.5880432128906	-1148.275634765625	1317.864379882812	-174.7519683837891	-1060.401000976562	1422.290893554688	-332.7890930175781	-941.6128540039062	1426.741577148438	-375.7113342285156	-938.1743774414062	1301.8212890625	-460.1182556152344	-908.0796508789062	1087.232543945312	-479.5888366699219	-993.8125	1069.356079101562	-418.2650146484375	-832.0179443359375	852.5690307617188	-386.6174926757812	-867.2520751953125	838.5836181640625	-461.3960266113281	-882.062255859375	979.05029296875	-479.0470886230469	-833.856201171875	759.9238891601562	-446.5264587402344	-805.3262329101562	772.2166137695312	-381.4507446289062	-1050.015991210938	1410.658569335938	-42.60787582397461	-1081.7861328125	1341.243774414062	12.84382438659668	-1135.992309570312	1081.157836914062	28.12551879882812	-1083.32275390625	1053.725341796875	-52.65476226806641	-1003.792297363281	824.89208984375	61.25556182861328	-1089.457275390625	814.2098999023438	78.30545806884766	-1130.914794921875	1001.933959960938	42.03205108642578	-1002.409423828125	635.375244140625	55.37215042114258	-986.9004516601562	724.0162963867188	76.53014373779297	-1052.96142578125	1616.649291992188	-158.1833190917969	-837.9384765625	1671.04833984375	-180.7970123291016	-907.9413452148438	1656.445190429688	-75.87889862060547	-985.9278564453125	1639.24951171875	-276.181640625	-1026.57861328125	925.794189453125	-385.9141540527344	-1078.5146484375	938.3898315429688	-43.46590042114258	-952.5692749023438	954.0154418945312	-58.37279891967773	-918.8395385742188	932.8233642578125	-323.7093200683594	-1063.372802734375	465.5866088867188	-324.8857727050781	-1056.664184570312	607.9713134765625	-363.1830749511719	-1307.857666015625	57.52163314819336	-358.82861328125	-1193.656616210938	251.5619812011719	-356.6330261230469	-1105.370727539062	44.38632202148438	-341.880859375	-1155.1181640625	44.88537216186523	-290.3403015136719	-1205.12109375	40.00581359863281	-391.0355834960938	-1364.861450195312	64.727294921875	-287.0906372070312	-865.9979248046875	521.9096069335938	-30.72766304016113	-959.4869384765625	779.197021484375	-13.12424755096436	-818.4945068359375	37.91274642944336	-50.85163879394531	-856.0462646484375	395.9279174804688	-24.94801330566406	-618.133544921875	95.79371643066406	-7.584508895874023	-654.0794677734375	79.70450592041016	-64.43330383300781	-717.823974609375	68.44671630859375	9.460527420043945	-822.0436401367188	670.2298583984375	-358.97265625	-1061.557861328125	724.6726684570312	102.0584945678711	-836.9846801757812	33.99925231933594	-120.0709762573242	
197	1.96	-1131.520141601562	1004.342224121094	-128.8536224365234	-1124.834716796875	994.7345581054688	-299.6810607910156	-1122.843017578125	1062.094116210938	-227.4985504150391	-861.8040161132812	1246.391479492188	-176.0644989013672	-1125.786010742188	1191.237426757812	-242.9614105224609	-1057.197509765625	1455.876342773438	-223.9884185791016	-886.7633056640625	1362.4775390625	-178.554931640625	-1141.139038085938	1317.31396484375	-171.8571472167969	-1052.647216796875	1421.96435546875	-329.4454040527344	-933.6220092773438	1426.436279296875	-371.8592529296875	-929.859375	1301.47314453125	-456.2372436523438	-899.4599609375	1086.974243164062	-475.7025146484375	-985.4005737304688	1068.947998046875	-414.6912841796875	-823.3262329101562	852.46337890625	-382.5655822753906	-858.4027709960938	838.3892822265625	-457.4449462890625	-873.3330078125	978.8197021484375	-475.1213989257812	-824.7454833984375	759.8507690429688	-442.5136108398438	-796.4063720703125	772.2725219726562	-377.3668212890625	-1043.401733398438	1409.858764648438	-39.1738166809082	-1075.350341796875	1340.3095703125	16.00690650939941	-1129.890380859375	1080.356201171875	30.97540473937988	-1076.603759765625	1052.755493164062	-49.38444900512695	-998.5491943359375	824.0054931640625	65.28923034667969	-1084.267333984375	813.4315795898438	81.77943420410156	-1124.947021484375	1001.199829101562	45.04595947265625	-997.3590698242188	634.4440307617188	59.92909622192383	-981.8885498046875	723.1138305664062	81.02240753173828	-1046.712158203125	1615.642333984375	-155.3700561523438	-831.9225463867188	1671.295654296875	-176.3961029052734	-902.546142578125	1656.4443359375	-72.01285552978516	-978.9246826171875	1638.50244140625	-272.9056396484375	-1018.799865722656	925.0674438476562	-382.6299133300781	-1071.201416015625	938.660400390625	-40.11163330078125	-945.4076538085938	954.1712646484375	-54.93168640136719	-911.1524047851562	932.1209716796875	-320.1800537109375	-1058.393798828125	465.3799133300781	-322.7388000488281	-1050.61474609375	607.7515869140625	-360.6798706054688	-1307.255126953125	59.45242309570312	-359.2003479003906	-1190.890625	252.6566619873047	-356.013427734375	-1105.189697265625	44.24382019042969	-341.93212890625	-1154.862426757812	44.9579963684082	-290.58203125	-1204.847290039062	40.21032333374023	-391.2116394042969	-1364.238403320312	67.73885345458984	-287.528564453125	-859.07861328125	521.830322265625	-28.49463653564453	-951.3583374023438	779.3082885742188	-10.39534091949463	-817.0609741210938	37.97772598266602	-50.42400360107422	-849.6243286132812	395.4981384277344	-22.86968231201172	-614.589111328125	89.48300170898438	-8.328595161437988	-651.4788818359375	74.84699249267578	-64.91555023193359	-715.0858154296875	65.22171783447266	9.211116790771484	-812.7752075195312	670.197998046875	-354.9435424804688	-1056.690307617188	723.8917846679688	105.9210891723633	-835.9307250976562	35.06607437133789	-119.5698623657227	
